<?xml version="1.0" encoding="utf-8"?>
<!-- Generator: Adobe Illustrator 25.0.1, SVG Export Plug-In . SVG Version: 6.00 Build 0)  -->
<svg version="1.1" id="Calque_1" xmlns="http://www.w3.org/2000/svg" xmlns:xlink="http://www.w3.org/1999/xlink" x="0px" y="0px"
	 viewBox="0 0 360 360" style="enable-background:new 0 0 360 360;" xml:space="preserve">
<style type="text/css">
	.st0{fill:#001552;}
	.st1{fill:#09A1D6;}
	.st2{fill:#EBAC67;}
	.st3{fill:#DB6626;}
	.st4{fill:#AF5198;}
	.st5{fill:#7A1B77;}
	.st6{fill:#0D7BB5;}
	.st7{fill:#FFFFFF;}
	.st8{fill:#1D1D1B;}
</style>
<g>
	<path class="st0" d="M119.81,175.58v13.49h30.13v11.69h-36.41c-3.54,0-6.4-2.87-6.4-6.4V144.4c0-3.64,2.95-6.6,6.6-6.6h36.21v11.69
		h-30.13v14.39h23.56v11.69H119.81z"/>
</g>
<g>
	<path class="st0" d="M126.63,222.76c0,3.58-1.96,6.58-6.92,6.58h-7.33v9.32h-2.84v-22.45h10.3
		C124.67,216.21,126.63,219.15,126.63,222.76z M123.69,222.76c0-2.67-1.22-4.29-4.46-4.29h-6.85v8.61h6.75
		C122.48,227.08,123.69,225.32,123.69,222.76z"/>
	<path class="st0" d="M145.43,227.89v10.77h-2.7v-10.47c0-3.61-1.59-4.69-4.05-4.69c-3.75,0-5.74,2.9-5.74,8.71v6.45h-2.7v-23.63
		h2.7v11.18c1.05-3.07,3.14-4.96,6.48-4.96C143.64,221.24,145.43,223.53,145.43,227.89z"/>
	<path class="st0" d="M148.71,230.19c0-5.03,2.8-8.95,8.51-8.95c5.67,0,8.47,3.95,8.47,8.95c0,5.06-2.8,9.01-8.47,9.01
		C151.51,239.2,148.71,235.28,148.71,230.19z M157.21,237.01c3.81,0,5.74-2.06,5.74-6.79c0-4.76-1.92-6.79-5.74-6.79
		c-3.82,0-5.77,2.03-5.77,6.79C151.44,234.95,153.4,237.01,157.21,237.01z"/>
	<path class="st0" d="M170.55,234.71v-10.8h-3.21v-1.52l3.44-0.84l1.01-3.51h1.45v3.75h5.57v2.13h-5.57v12.56h5.37v2.19h-3.98
		C171.39,238.66,170.55,237.41,170.55,234.71z"/>
	<path class="st0" d="M180.67,230.19c0-5.03,2.8-8.95,8.51-8.95c5.67,0,8.47,3.95,8.47,8.95c0,5.06-2.8,9.01-8.47,9.01
		C183.48,239.2,180.67,235.28,180.67,230.19z M189.18,237.01c3.81,0,5.74-2.06,5.74-6.79c0-4.76-1.92-6.79-5.74-6.79
		c-3.82,0-5.77,2.03-5.77,6.79C183.41,234.95,185.37,237.01,189.18,237.01z"/>
	<path class="st0" d="M216.39,227.89v10.77h-2.7v-10.47c0-3.61-1.59-4.69-4.05-4.69c-3.75,0-5.74,2.9-5.74,8.71v6.45h-2.7v-16.88
		h2.7v4.42c1.05-3.07,3.14-4.96,6.48-4.96C214.6,221.24,216.39,223.53,216.39,227.89z"/>
	<path class="st0" d="M220.51,216.21h3.48v2.8h-3.48V216.21z M220.88,221.78h2.7v16.88h-2.7V221.78z"/>
	<path class="st0" d="M235.9,221.24c5.06,0,7.6,2.8,7.87,6.72h-2.53c-0.4-2.77-2.09-4.52-5.23-4.52c-3.58,0-5.81,1.92-5.81,6.79
		c0,4.9,2.16,6.79,5.71,6.79c3.41,0,5.17-1.92,5.5-4.79h2.57c-0.2,3.88-2.94,6.99-8.07,6.99c-5.54,0-8.44-3.81-8.44-8.98
		C227.46,225.05,230.43,221.24,235.9,221.24z"/>
	<path class="st0" d="M249,233.02c0.2,2.3,1.49,4.12,5.37,4.12c2.97,0,4.15-1.05,4.15-2.94c0-1.62-0.95-2.5-3.07-2.8l-3.92-0.57
		c-2.94-0.4-4.59-1.96-4.59-4.56c0-3.14,2.5-5.06,6.75-5.06c4.42,0,6.96,2.23,7.16,5.4h-2.67c-0.17-1.76-1.45-3.34-4.56-3.34
		c-2.87,0-4.05,1.15-4.05,2.8c0,1.18,0.61,2.19,2.73,2.5l3.58,0.51c3.88,0.57,5.3,2.23,5.3,5c0,3.44-2.4,5.13-6.89,5.13
		c-5.5,0-7.73-2.63-7.8-6.18H249z"/>
</g>
<g>
	<path class="st0" d="M174.75,200.76h-7.52v-56.53c0-3.55,2.88-6.42,6.42-6.42h6.96v26.08h25.04V137.8h6.87
		c3.55,0,6.42,2.88,6.42,6.42v56.53h-7.57c-3.16,0-5.73-2.56-5.73-5.73v-18.84h-25.04v18.7
		C180.62,198.13,177.99,200.76,174.75,200.76z"/>
</g>
<g>
	<path class="st0" d="M281.36,137.81c-3.29,0-6.23,1.96-7.5,4.99l-12.96,31.03l-13.26-31.94c-1.03-2.49-3.44-4.09-6.13-4.09h-10.34
		l29,62.68l0.11,0.24h1.23l29.11-62.92H281.36z"/>
</g>
<g>
	<path class="st0" d="M290.1,200.74c3.29,0,6.23-1.96,7.5-4.99l12.96-31.03l13.26,31.94c1.03,2.49,3.44,4.09,6.13,4.09h10.34
		l-29-62.68l-0.11-0.24h-1.23l-29.11,62.92H290.1z"/>
</g>
<g>
	<path class="st0" d="M126.63,222.76c0,3.58-1.96,6.58-6.92,6.58h-7.33v9.32h-2.84v-22.45h10.3
		C124.67,216.21,126.63,219.15,126.63,222.76z M123.69,222.76c0-2.67-1.22-4.29-4.46-4.29h-6.85v8.61h6.75
		C122.48,227.08,123.69,225.32,123.69,222.76z"/>
	<path class="st0" d="M145.43,227.89v10.77h-2.7v-10.47c0-3.61-1.59-4.69-4.05-4.69c-3.75,0-5.74,2.9-5.74,8.71v6.45h-2.7v-23.63
		h2.7v11.18c1.05-3.07,3.14-4.96,6.48-4.96C143.64,221.24,145.43,223.53,145.43,227.89z"/>
	<path class="st0" d="M148.71,230.19c0-5.03,2.8-8.95,8.51-8.95c5.67,0,8.47,3.95,8.47,8.95c0,5.06-2.8,9.01-8.47,9.01
		C151.51,239.2,148.71,235.28,148.71,230.19z M157.21,237.01c3.81,0,5.74-2.06,5.74-6.79c0-4.76-1.92-6.79-5.74-6.79
		c-3.82,0-5.77,2.03-5.77,6.79C151.44,234.95,153.4,237.01,157.21,237.01z"/>
	<path class="st0" d="M170.55,234.71v-10.8h-3.21v-1.52l3.44-0.84l1.01-3.51h1.45v3.75h5.57v2.13h-5.57v12.56h5.37v2.19h-3.98
		C171.39,238.66,170.55,237.41,170.55,234.71z"/>
	<path class="st0" d="M180.67,230.19c0-5.03,2.8-8.95,8.51-8.95c5.67,0,8.47,3.95,8.47,8.95c0,5.06-2.8,9.01-8.47,9.01
		C183.48,239.2,180.67,235.28,180.67,230.19z M189.18,237.01c3.81,0,5.74-2.06,5.74-6.79c0-4.76-1.92-6.79-5.74-6.79
		c-3.82,0-5.77,2.03-5.77,6.79C183.41,234.95,185.37,237.01,189.18,237.01z"/>
	<path class="st0" d="M216.39,227.89v10.77h-2.7v-10.47c0-3.61-1.59-4.69-4.05-4.69c-3.75,0-5.74,2.9-5.74,8.71v6.45h-2.7v-16.88
		h2.7v4.42c1.05-3.07,3.14-4.96,6.48-4.96C214.6,221.24,216.39,223.53,216.39,227.89z"/>
	<path class="st0" d="M220.51,216.21h3.48v2.8h-3.48V216.21z M220.88,221.78h2.7v16.88h-2.7V221.78z"/>
	<path class="st0" d="M235.9,221.24c5.06,0,7.6,2.8,7.87,6.72h-2.53c-0.4-2.77-2.09-4.52-5.23-4.52c-3.58,0-5.81,1.92-5.81,6.79
		c0,4.9,2.16,6.79,5.71,6.79c3.41,0,5.17-1.92,5.5-4.79h2.57c-0.2,3.88-2.94,6.99-8.07,6.99c-5.54,0-8.44-3.81-8.44-8.98
		C227.46,225.05,230.43,221.24,235.9,221.24z"/>
	<path class="st0" d="M249,233.02c0.2,2.3,1.49,4.12,5.37,4.12c2.97,0,4.15-1.05,4.15-2.94c0-1.62-0.95-2.5-3.07-2.8l-3.92-0.57
		c-2.94-0.4-4.59-1.96-4.59-4.56c0-3.14,2.5-5.06,6.75-5.06c4.42,0,6.96,2.23,7.16,5.4h-2.67c-0.17-1.76-1.45-3.34-4.56-3.34
		c-2.87,0-4.05,1.15-4.05,2.8c0,1.18,0.61,2.19,2.73,2.5l3.58,0.51c3.88,0.57,5.3,2.23,5.3,5c0,3.44-2.4,5.13-6.89,5.13
		c-5.5,0-7.73-2.63-7.8-6.18H249z"/>
</g>
<path class="st1" d="M55.88,211.28c-1.49,1.47-3.24,2.62-4.91,3.74c-0.44,0.28-0.85,0.56-1.27,0.83c-0.8,0.54-1.61,1.03-2.43,1.47
	c-1.71,1.03-3.95,1.99-4.33,4.18c-0.2,1.18,0.24,2.07,0.77,3.08c-0.64,0.45-7.14,4.32-7.29,4.15c-3.89-4.51-3.77-10.97,0.38-15.32
	c1.33-1.37,2.86-2.48,4.33-3.46c0.99-0.66,2.03-1.23,3-1.79c0.8-0.44,1.57-0.87,2.35-1.35c1.05-0.66,1.89-1.29,2.52-1.95
	c0.32-0.32,0.72-0.85,0.72-1.47c0-0.58-0.38-1.07-0.7-1.41c-0.87-0.83-1.95-1.55-3.16-2.32c-0.69-0.46-1.43-0.85-2.18-1.27
	c-0.8-0.44-1.61-0.89-2.4-1.41c-1.17-0.76-2.54-1.69-3.8-2.82c-2.46-2.32-3.88-5.37-3.89-8.56c0-0.02,0-0.02,0-0.02
	c0-0.89,0.1-1.77,0.32-2.62l9.2,2.19c-0.06,0.12-0.08,0.26-0.08,0.4v0.06c0.02,0.6,0.42,1.15,0.77,1.51
	c0.52,0.56,1.21,1.07,2.09,1.63c0.65,0.4,1.31,0.76,1.97,1.13c0.97,0.54,1.95,1.09,2.9,1.73l0.56,0.4c1.71,1.15,3.48,2.36,4.93,3.95
	C60.23,200.35,60.07,207.08,55.88,211.28z"/>
<path class="st2" d="M79.03,113.19v3.18c0,4.79-2.52,9.24-6.62,11.72c0,0-25.02,15.12-25.59,15.48l-0.04-0.02v-10.93l6.04-3.6
	L79.03,113.19z"/>
<path class="st3" d="M46.78,132.63v10.93l-8.72-5.31l-5.46-3.3l-12.24-7.39c-4.11-2.48-6.64-6.95-6.64-11.76v-3.16L46.78,132.63z"/>
<path class="st4" d="M13.71,258.35v-3.18c0-4.79,2.52-9.24,6.62-11.72c0,0,25.02-15.12,25.59-15.48l0.04,0.02v10.93l-6.04,3.6
	L13.71,258.35z"/>
<path class="st5" d="M45.96,238.91v-10.93l8.72,5.31l5.46,3.3l12.24,7.39c4.11,2.48,6.64,6.95,6.64,11.76v3.16L45.96,238.91z"/>
<path class="st6" d="M55.76,175.75c-1.25,1.29-2.7,2.32-3.97,3.14c-0.88,0.6-1.83,1.11-2.7,1.63c-0.75,0.4-1.49,0.79-2.2,1.25
	c-1.07,0.7-2.19,1.41-3.08,2.29c-0.28,0.24-0.58,0.62-0.69,1.07l-9.2-2.19c0.52-2.13,1.65-4.07,3.34-5.64
	c1.51-1.43,3.32-2.54,5.05-3.62c0.66-0.44,1.35-0.85,2.03-1.31c0.54-0.36,1.09-0.7,1.65-1.03c0.92-0.56,1.79-1.09,2.54-1.71
	c0.56-0.46,1.23-1.17,1.21-1.97c0-0.79-0.7-1.49-1.25-1.93c-0.94-0.75-2.01-1.37-3.12-2.05c-0.62-0.36-1.23-0.74-1.83-1.11
	c-0.5-0.32-0.99-0.64-1.49-0.93c-1.31-0.79-2.68-1.63-3.91-2.66c-2.92-2.44-4.53-5.7-4.53-9.16c0.02-2.7,0.99-5.25,2.82-7.37
	c0,0,8.06,4.87,8.07,4.88c-0.11-0.06-0.97,1.23-1.06,1.41c-0.36,0.74-0.47,1.43-0.01,2.18c0.66,1.08,2.08,1.83,3.13,2.5
	c0.72,0.46,1.43,0.85,2.19,1.25c0.93,0.54,1.91,1.07,2.84,1.69c1.29,0.85,2.78,1.89,4.07,3.16
	C60.23,164.12,60.29,171.1,55.76,175.75z"/>
<path class="st2" d="M79.03,113.19v3.18c0,4.79-2.52,9.24-6.62,11.72c0,0-25.02,15.12-25.59,15.48l-0.04-0.02v-10.93l6.04-3.6
	L79.03,113.19z"/>
<path class="st3" d="M46.78,132.63v10.93l-8.72-5.31l-5.46-3.3l-12.24-7.39c-4.11-2.48-6.64-6.95-6.64-11.76v-3.16L46.78,132.63z"/>
<path class="st4" d="M13.71,258.35v-3.18c0-4.79,2.52-9.24,6.62-11.72c0,0,25.02-15.12,25.59-15.48l0.04,0.02v10.93l-6.04,3.6
	L13.71,258.35z"/>
<path class="st5" d="M45.96,238.91v-10.93l8.72,5.31l5.46,3.3l12.24,7.39c4.11,2.48,6.64,6.95,6.64,11.76v3.16L45.96,238.91z"/>
</svg>
